<?xml version="1.0" standalone="no"?>
<!DOCTYPE svg PUBLIC "-//W3C//DTD SVG 20010904//EN"
 "http://www.w3.org/TR/2001/REC-SVG-20010904/DTD/svg10.dtd">
<svg version="1.0" xmlns="http://www.w3.org/2000/svg"
 width="300.000000pt" height="300.000000pt" viewBox="0 0 300.000000 300.000000"
 preserveAspectRatio="xMidYMid meet">
<metadata>
Created by potrace 1.10, written by Peter Selinger 2001-2011
</metadata>
<g transform="translate(0.000000,300.000000) scale(0.050000,-0.050000)"
fill="#ff7800" stroke="none">
<path d="M3531 4935 c-27 -71 -33 -122 -24 -204 l13 -108 -87 48 c-341 191
-1080 28 -1401 -309 -45 -47 -70 -58 -107 -49 -45 11 -47 9 -23 -29 22 -36 21
-48 -11 -83 -21 -23 -31 -48 -23 -56 9 -8 27 1 41 20 34 47 43 45 110 -30 72
-81 73 -80 -56 -36 -98 33 -113 34 -186 5 -99 -39 -68 -63 83 -65 l110 -1 -90
-35 c-49 -20 -95 -27 -102 -18 -43 63 -184 -416 -174 -589 l6 -106 399 -5
c444 -6 473 -3 424 52 -18 20 -33 47 -33 60 0 15 -42 23 -120 23 l-120 0 -2
75 c-3 125 -17 292 -28 340 -6 25 -2 45 8 45 11 0 22 16 26 35 31 159 320
-490 385 -864 33 -187 42 -484 11 -354 -25 108 -65 131 -48 28 9 -58 6 -85 -9
-85 -13 0 -23 17 -23 39 0 21 -9 44 -20 51 -11 7 -20 45 -20 84 l0 72 -243
-13 c-134 -7 -291 -13 -349 -13 -124 0 -181 -39 -147 -101 19 -36 44 -39 319
-39 l298 0 13 70 c17 88 69 95 69 10 0 -33 -8 -60 -17 -60 -9 0 -13 -45 -8
-100 9 -92 7 -100 -32 -100 -30 0 -43 13 -43 40 0 53 -357 62 -400 10 -49 -59
-9 -90 118 -90 65 0 122 -7 125 -15 8 -18 1141 5 1232 25 51 11 65 8 65 -16 0
-46 -46 -55 -329 -65 -412 -15 -892 -54 -904 -74 -23 -37 26 -43 498 -60 267
-10 591 -22 720 -28 137 -5 235 -2 235 9 0 26 -152 44 -368 44 -303 0 -548 25
-422 43 55 7 172 14 260 15 88 1 255 11 370 22 116 11 280 25 365 32 131 10
155 17 155 47 0 49 -73 61 -357 61 -171 1 -225 6 -203 22 23 17 19 19 -20 9
-27 -7 -101 -18 -164 -25 l-114 -11 -33 82 c-19 46 -47 83 -64 83 -19 0 -26
13 -20 37 5 21 2 52 -8 70 -14 24 25 90 166 277 412 550 532 875 453 1230 -13
55 -9 63 25 60 21 -1 39 -14 39 -28 0 -14 14 -26 30 -26 17 0 30 -13 30 -30 0
-16 9 -30 20 -30 12 0 35 -31 54 -69 18 -38 40 -65 49 -59 16 10 22 -2 50 -91
8 -26 11 -26 28 0 14 22 18 16 19 -26 0 -30 9 -55 21 -55 11 0 28 -20 38 -45
15 -37 19 -28 20 47 1 113 -28 202 -102 312 -71 103 -74 149 -7 86 45 -42 50
-43 50 -10 0 33 5 32 50 -10 32 -30 50 -37 50 -20 0 17 18 10 50 -20 31 -29
50 -37 50 -20 0 19 12 16 40 -10 73 -66 41 4 -39 87 -103 106 -210 159 -354
176 -102 12 -110 16 -66 33 27 11 75 32 107 47 32 15 70 27 85 27 15 0 27 9
27 20 0 11 17 20 38 20 53 0 102 20 102 42 0 34 -218 18 -324 -23 l-106 -42
130 134 c121 124 126 133 70 120 -95 -22 -188 -93 -262 -201 l-68 -99 -1 129
c-1 72 -8 166 -16 210 l-15 80 -37 -95z m-311 -297 c0 -10 12 -18 28 -18 15 0
62 -15 105 -33 l77 -33 -110 -22 c-135 -28 -237 -89 -330 -197 -81 -95 -94
-145 -20 -75 35 33 50 38 51 18 0 -20 10 -16 32 12 23 30 34 33 42 13 7 -19
26 -11 67 29 32 31 58 45 58 31 0 -16 27 -10 81 17 l80 41 -65 -115 c-60 -105
-66 -131 -66 -280 1 -198 38 -266 60 -108 7 56 22 97 32 91 10 -6 18 15 18 48
0 32 12 63 27 69 16 6 34 43 41 82 8 40 22 72 33 72 10 0 19 9 19 20 0 30 66
100 94 100 39 0 34 -345 -6 -481 -68 -230 -163 -367 -621 -903 -247 -289 -231
-283 -261 -107 -61 363 -236 771 -411 963 -55 59 -87 108 -72 108 43 0 293
-92 327 -120 16 -14 30 -18 30 -10 0 8 23 -1 52 -19 69 -46 82 -26 29 47 -55
79 -130 130 -241 168 l-90 31 60 23 c33 12 96 39 140 60 44 20 98 44 120 52
34 12 29 17 -30 27 -94 16 -231 -10 -316 -60 -91 -53 -91 -53 -6 121 73 148
74 150 210 206 171 71 365 113 526 114 97 0 122 6 114 27 -8 21 3 25 41 18 28
-5 51 -18 51 -27z m-984 -273 c-60 -64 -116 -169 -116 -217 0 -22 -21 -6 -57
44 -57 78 -57 78 -15 97 23 11 77 45 120 75 100 72 134 72 68 1z m-216 -417
c0 -7 -23 -30 -51 -52 -91 -72 -163 -265 -136 -369 13 -53 107 75 107 145 0
15 8 28 18 28 9 0 29 29 45 65 27 64 27 64 40 -90 7 -93 26 -175 46 -207 42
-64 56 -59 -167 -52 l-188 7 15 143 c9 79 14 177 13 216 -2 70 2 75 113 124
122 55 145 61 145 42z"/>
<path d="M2738 3748 c-102 -30 -225 -129 -180 -144 14 -5 91 2 169 15 100 17
159 18 196 4 29 -11 60 -14 68 -7 9 8 10 -2 3 -21 -15 -40 37 -50 53 -10 5 14
11 7 11 -16 3 -55 40 -89 98 -89 43 0 47 6 35 55 -40 162 -267 269 -453 213z"/>
<path d="M2761 3121 c-44 -28 23 -50 94 -31 51 13 52 16 15 31 -54 22 -75 22
-109 0z"/>
<path d="M4070 4210 c7 -22 22 -80 33 -130 11 -49 47 -171 79 -270 32 -99 64
-227 71 -285 l13 -105 -358 -1 -358 -1 -68 -58 c-94 -80 -86 -82 448 -75 l460
5 6 117 c8 143 -52 390 -136 559 -61 124 -215 322 -190 244z"/>
<path d="M3398 3167 c-18 -5 -43 -31 -55 -59 l-23 -50 135 11 c74 6 306 21
515 33 386 22 410 26 410 59 0 19 -915 24 -982 6z"/>
<path d="M2225 3145 c41 -4 109 -4 150 0 41 5 8 8 -75 8 -82 0 -116 -3 -75 -8z"/>
<path d="M2040 3075 c-279 -13 -377 -24 -399 -46 -61 -60 6 -73 422 -81 224
-4 397 -3 384 3 -16 8 -18 30 -7 69 22 75 32 74 -400 55z"/>
<path d="M3304 2996 c-25 -9 -26 -14 -5 -15 23 -1 24 -6 5 -25 -35 -35 -30
-55 21 -75 44 -18 43 -19 -9 -20 -29 0 -60 -11 -68 -24 -10 -17 35 -20 174
-10 103 7 328 18 498 24 440 16 510 35 438 121 -24 29 -986 51 -1054 24z"/>
<path d="M3260 2763 c0 -13 9 -23 20 -23 11 0 20 -10 20 -21 0 -33 53 -79 94
-81 21 -2 11 -10 -24 -20 -64 -18 500 -6 734 15 136 12 194 57 142 109 -29 29
-986 50 -986 21z"/>
<path d="M2010 1912 c-291 -130 -190 -542 132 -538 163 2 207 37 214 171 l6
115 -60 0 c-56 0 -60 -5 -66 -85 -8 -116 -119 -135 -216 -38 -154 154 54 379
233 254 38 -27 45 -26 76 8 87 96 -161 183 -319 113z"/>
<path d="M2479 1937 c-1 -4 -4 -131 -5 -282 l-4 -275 65 0 c62 0 65 3 65 80 0
75 4 80 59 80 47 0 67 -15 103 -80 41 -72 53 -80 123 -80 l78 0 -64 81 -64 81
52 55 c140 146 28 323 -204 323 -77 0 -154 5 -171 12 -18 7 -33 9 -33 5z m302
-138 c96 -51 32 -159 -95 -159 l-86 0 0 90 c0 97 76 126 181 69z"/>
<path d="M3043 1723 c8 -249 37 -305 176 -343 211 -56 309 49 318 343 l7 220
-66 -7 -65 -6 -2 -197 c-1 -211 -21 -253 -121 -253 -100 0 -120 42 -120 253
l0 197 -67 6 -67 7 7 -220z"/>
<path d="M3660 1653 l0 -277 208 7 c170 6 216 14 250 45 54 49 56 153 3 201
-36 33 -37 39 -8 82 83 128 -12 204 -268 213 l-185 6 0 -277z m294 175 c114
-31 50 -128 -85 -128 -84 0 -89 3 -89 57 0 84 50 104 174 71z m72 -246 c48
-48 -12 -92 -133 -98 -112 -6 -163 59 -98 125 22 22 203 1 231 -27z"/>
<path d="M2065 1192 c20 -15 35 -53 35 -89 0 -35 9 -63 20 -63 11 0 20 30 20
66 0 36 11 77 24 90 19 19 6 24 -55 23 -70 0 -75 -3 -44 -27z"/>
<path d="M3135 1130 c-18 -49 -25 -90 -14 -90 10 0 19 9 19 20 0 29 75 25 86
-5 5 -14 14 -20 21 -13 17 15 -34 164 -59 172 -11 4 -34 -34 -53 -84z"/>
<path d="M2226 1164 c-32 -20 -56 -124 -28 -124 12 0 22 16 22 36 0 20 11 47
24 60 28 28 15 48 -18 28z"/>
<path d="M2305 1167 c-58 -23 -29 -127 35 -127 65 0 77 31 39 101 -21 40 -31
43 -74 26z"/>
<path d="M2551 1149 c-37 -38 -39 -53 -7 -85 30 -30 96 -31 96 -2 0 12 -13 17
-29 11 -17 -6 -35 -3 -42 8 -6 10 12 19 40 19 56 0 64 19 27 56 -32 32 -47 30
-85 -7z"/>
<path d="M2815 1165 c-38 -9 -52 -125 -15 -125 11 0 20 23 20 50 0 47 37 73
43 30 1 -11 3 -28 5 -38 6 -51 32 -41 32 13 0 63 -25 83 -85 70z"/>
<path d="M2947 1165 c-43 -28 -23 -174 25 -181 44 -6 81 45 48 66 -11 7 -11
31 1 62 10 28 19 55 19 59 0 14 -68 10 -93 -6z"/>
<path d="M3304 1163 c-18 -12 -32 -93 -26 -158 3 -37 81 -30 96 9 7 18 3 37
-10 41 -16 6 -14 21 7 54 32 48 -15 86 -67 54z"/>
<path d="M3429 1147 c-17 -18 -26 -45 -20 -61 6 -16 11 -33 11 -38 0 -4 23 -8
50 -8 28 0 50 10 50 22 0 12 -13 17 -29 11 -17 -6 -35 -3 -42 8 -6 10 12 19
40 19 32 0 51 -11 51 -30 0 -16 9 -30 20 -30 11 0 20 23 20 52 0 64 43 55 63
-13 12 -40 14 -36 11 21 -4 73 -79 95 -118 35 -11 -17 -15 -18 -16 -2 0 39
-57 47 -91 14z"/>
<path d="M3701 1151 c-54 -65 29 -151 86 -91 18 19 13 21 -22 11 -37 -11 -45
-6 -45 29 0 34 9 40 40 30 47 -15 55 20 8 38 -41 16 -40 16 -67 -17z"/>
<path d="M3832 1130 c7 -33 12 -80 11 -105 -4 -72 24 -52 64 46 40 95 34 145
-8 67 l-24 -45 -29 49 c-28 48 -28 48 -14 -12z"/>
<path d="M2400 1151 c0 -23 48 -111 60 -111 20 0 64 103 50 117 -7 7 -21 -1
-33 -18 -15 -22 -23 -23 -30 -4 -10 23 -47 36 -47 16z"/>
<path d="M2720 1100 c0 -33 9 -60 20 -60 11 0 20 27 20 60 0 33 -9 60 -20 60
-11 0 -20 -27 -20 -60z"/>
</g>
</svg>
