 <svg  version="1.0" xmlns="http://www.w3.org/2000/svg"  width="300.000000pt" height="300.000000pt" viewBox="0 0 300.000000 300.000000"  preserveAspectRatio="xMidYMid meet">  <g transform="translate(0.000000,300.000000) scale(0.050000,-0.050000)" fill="#1c71d8" stroke="none"> <path d="M0 3000 l0 -3000 3000 0 3000 0 0 3000 0 3000 -3000 0 -3000 0 0 -3000z m3599 1740 l1 -129 68 99 c74 108 167 179 262 201 56 13 51 4 -70 -120 l-130 -134 106 42 c106 41 324 57 324 23 0 -22 -49 -42 -102 -42 -21 0 -38 -9 -38 -20 0 -11 -12 -20 -27 -20 -15 0 -53 -12 -85 -27 -32 -15 -80 -36 -107 -47 -44 -17 -36 -21 66 -33 144 -17 251 -70 354 -176 80 -83 112 -153 39 -87 -28 26 -40 29 -40 10 0 -17 -19 -9 -50 20 -32 30 -50 37 -50 20 0 -17 -18 -10 -50 20 -45 42 -50 43 -50 10 0 -33 -5 -32 -50 10 -67 63 -64 17 7 -86 74 -110 103 -199 102 -312 -1 -75 -5 -84 -20 -47 -10 25 -27 45 -38 45 -12 0 -21 25 -21 55 -1 42 -5 48 -19 26 -17 -26 -20 -26 -28 0 -28 89 -34 101 -50 91 -9 -6 -31 21 -49 59 -19 38 -42 69 -54 69 -11 0 -20 14 -20 30 0 17 -13 30 -30 30 -16 0 -30 12 -30 26 0 14 -18 27 -39 28 -34 3 -38 -5 -25 -60 79 -355 -41 -680 -453 -1230 -141 -187 -180 -253 -166 -277 10 -18 13 -49 8 -70 -6 -24 1 -37 20 -37 17 0 45 -37 64 -83 l33 -82 114 11 c63 7 137 18 164 25 39 10 43 8 20 -9 -22 -16 32 -21 203 -22 284 0 357 -12 357 -61 0 -30 -24 -37 -155 -47 -85 -7 -249 -21 -365 -32 -115 -11 -282 -21 -370 -22 -88 -1 -205 -8 -260 -15 -126 -18 119 -43 422 -43 216 0 368 -18 368 -44 0 -11 -98 -14 -235 -9 -129 6 -453 18 -720 28 -816 30 -612 97 406 134 283 10 329 19 329 65 0 24 -14 27 -65 16 -91 -20 -1224 -43 -1232 -25 -3 8 -60 15 -125 15 -127 0 -167 31 -118 90 43 52 400 43 400 -10 0 -27 13 -40 43 -40 39 0 41 8 32 100 -5 55 -1 100 8 100 9 0 17 27 17 60 0 85 -52 78 -69 -10 l-13 -70 -298 0 c-275 0 -300 3 -319 39 -34 62 23 101 147 101 58 0 215 6 349 13 l243 13 0 -72 c0 -39 9 -77 20 -84 11 -7 20 -30 20 -51 0 -22 10 -39 23 -39 15 0 18 27 9 85 -17 103 23 80 48 -28 31 -130 22 167 -11 354 -65 374 -354 1023 -385 864 -4 -19 -15 -35 -26 -35 -10 0 -14 -20 -8 -45 11 -48 25 -215 28 -340 l2 -75 120 0 c78 0 120 -8 120 -23 0 -13 15 -40 33 -60 49 -55 20 -58 -424 -52 l-399 5 -6 106 c-10 173 131 652 174 589 7 -9 53 -2 102 18 l90 35 -110 1 c-151 2 -182 26 -83 65 73 29 88 28 186 -5 129 -44 128 -45 56 36 -67 75 -76 77 -110 30 -14 -19 -32 -28 -41 -20 -8 8 2 33 23 56 32 35 33 47 11 83 -24 38 -22 40 23 29 37 -9 62 2 107 49 321 337 1060 500 1401 309 l87 -48 -13 108 c-9 82 -3 133 24 204 l37 95 15 -80 c8 -44 15 -138 16 -210z m661 -774 c84 -169 144 -416 136 -559 l-6 -117 -460 -5 c-534 -7 -542 -5 -448 75 l68 58 358 1 358 1 -13 105 c-7 58 -39 186 -71 285 -32 99 -68 221 -79 270 -11 50 -26 108 -33 130 -25 78 129 -120 190 -244z m120 -805 c0 -33 -24 -37 -410 -59 -209 -12 -441 -27 -515 -33 l-135 -11 23 50 c12 28 37 54 55 59 67 18 982 13 982 -6z m-2005 -16 c-41 -4 -109 -4 -150 0 -41 5 -7 8 75 8 83 0 116 -3 75 -8z m65 -125 c-11 -39 -9 -61 7 -69 13 -6 -160 -7 -384 -3 -416 8 -483 21 -422 81 22 22 120 33 399 46 432 19 422 20 400 -55z m1918 -48 c72 -86 2 -105 -438 -121 -170 -6 -395 -17 -498 -24 -139 -10 -184 -7 -174 10 8 13 39 24 68 24 52 1 53 2 9 20 -51 20 -56 40 -21 75 19 19 18 24 -5 25 -21 1 -20 6 5 15 68 27 1030 5 1054 -24z m-112 -230 c52 -52 -6 -97 -142 -109 -234 -21 -798 -33 -734 -15 35 10 45 18 24 20 -41 2 -94 48 -94 81 0 11 -9 21 -20 21 -11 0 -20 10 -20 23 0 29 957 8 986 -21z m-1978 -830 c88 -36 104 -66 61 -113 -31 -34 -38 -35 -76 -8 -179 125 -387 -100 -233 -254 97 -97 208 -78 216 38 6 80 10 85 66 85 l60 0 -6 -115 c-11 -218 -348 -245 -478 -39 -149 238 121 519 390 406z m415 8 c232 0 344 -177 204 -323 l-52 -55 64 -81 64 -81 -78 0 c-70 0 -82 8 -123 80 -36 65 -56 80 -103 80 -55 0 -59 -5 -59 -80 0 -77 -3 -80 -65 -80 l-65 0 4 275 c1 151 4 278 5 282 0 4 15 2 33 -5 17 -7 94 -12 171 -12z m487 -187 c0 -211 20 -253 120 -253 100 0 120 42 121 253 l2 197 65 6 66 7 -7 -220 c-9 -294 -107 -399 -318 -343 -139 38 -168 94 -176 343 l-7 220 67 -7 67 -6 0 -197z m910 149 c61 -44 73 -109 33 -171 -29 -43 -28 -49 8 -82 53 -48 51 -152 -3 -201 -34 -31 -80 -39 -250 -45 l-208 -7 0 277 0 277 185 -6 c138 -5 198 -16 235 -42z m-1916 -686 c-13 -13 -24 -54 -24 -90 0 -36 -9 -66 -20 -66 -11 0 -20 28 -20 63 0 36 -15 74 -35 89 -31 24 -26 27 44 27 61 1 74 -4 55 -23z m1069 -65 c15 -43 21 -83 14 -89 -7 -7 -16 -1 -21 13 -11 30 -86 34 -86 5 0 -11 -9 -20 -19 -20 -11 0 -4 41 14 90 40 106 62 106 98 1z m-989 5 c-13 -13 -24 -40 -24 -60 0 -20 -10 -36 -22 -36 -28 0 -4 104 28 124 33 20 46 0 18 -28z m135 5 c38 -70 26 -101 -39 -101 -90 0 -86 128 4 138 8 1 24 -15 35 -37z m257 15 c37 -37 29 -56 -27 -56 -28 0 -46 -9 -40 -19 7 -11 25 -14 42 -8 16 6 29 1 29 -11 0 -29 -66 -28 -96 2 -32 32 -30 47 7 85 38 37 53 39 85 7z m264 -61 c0 -54 -26 -64 -32 -13 -2 10 -4 27 -5 38 -6 43 -43 17 -43 -30 0 -27 -9 -50 -20 -50 -37 0 -23 116 15 125 60 13 85 -7 85 -70z m140 76 c0 -4 -9 -31 -19 -59 -12 -31 -12 -55 -1 -62 33 -21 -4 -72 -48 -66 -48 7 -68 153 -25 181 25 16 93 20 93 6z m331 -62 c-21 -33 -23 -48 -7 -54 37 -12 1 -75 -43 -75 -43 0 -48 13 -41 110 5 69 28 89 83 75 35 -9 36 -14 8 -56z m149 24 c1 -16 5 -15 16 2 39 60 114 38 118 -35 3 -57 1 -61 -11 -21 -20 68 -63 77 -63 13 0 -29 -9 -52 -20 -52 -11 0 -20 14 -20 30 0 19 -19 30 -51 30 -28 0 -46 -9 -40 -19 7 -11 25 -14 42 -8 16 6 29 1 29 -11 0 -12 -22 -22 -50 -22 -27 0 -50 4 -50 8 0 5 -5 22 -11 38 -6 16 3 43 20 61 34 33 91 25 91 -14z m248 35 c47 -18 39 -53 -8 -38 -31 10 -40 4 -40 -30 0 -35 8 -40 45 -29 35 10 40 8 22 -11 -57 -60 -140 26 -86 91 27 33 26 33 67 17z m131 -30 c42 78 48 28 8 -67 -40 -98 -68 -118 -64 -46 1 25 -4 72 -11 105 -14 60 -14 60 14 12 l29 -49 24 45z m-1452 -3 c7 -19 15 -18 30 4 12 17 26 25 33 18 14 -14 -30 -117 -50 -117 -12 0 -60 88 -60 111 0 20 37 7 47 -16z m313 -35 c0 -33 -9 -60 -20 -60 -11 0 -20 27 -20 60 0 33 9 60 20 60 11 0 20 -27 20 -60z"/> <path d="M3128 4647 c8 -21 -17 -27 -114 -27 -161 -1 -355 -43 -526 -114 -136 -56 -137 -58 -210 -206 -85 -174 -85 -174 6 -121 85 50 222 76 316 60 59 -10 64 -15 30 -27 -22 -8 -76 -32 -120 -52 -44 -21 -107 -48 -140 -60 l-60 -23 90 -31 c111 -38 186 -89 241 -168 53 -73 40 -93 -29 -47 -29 18 -52 27 -52 19 0 -8 -14 -4 -30 10 -34 28 -284 120 -327 120 -15 0 17 -49 72 -108 175 -192 350 -600 411 -963 30 -176 14 -182 261 107 458 536 553 673 621 903 40 136 45 481 6 481 -28 0 -94 -70 -94 -100 0 -11 -9 -20 -19 -20 -11 0 -25 -32 -33 -72 -7 -39 -25 -76 -41 -82 -15 -6 -27 -37 -27 -69 0 -33 -8 -54 -18 -48 -10 6 -25 -35 -32 -91 -22 -158 -59 -90 -60 108 0 149 6 175 66 280 l65 115 -80 -41 c-54 -27 -81 -33 -81 -17 0 14 -26 0 -58 -31 -41 -40 -60 -48 -67 -29 -8 20 -19 17 -42 -13 -22 -28 -32 -32 -32 -12 -1 20 -16 15 -51 -18 -74 -70 -61 -20 20 75 93 108 195 169 330 197 l110 22 -77 33 c-43 18 -90 33 -105 33 -16 0 -28 8 -28 18 0 9 -23 22 -51 27 -38 7 -49 3 -41 -18z m-116 -920 c138 -63 245 -247 144 -247 -58 0 -95 34 -98 89 0 23 -6 30 -11 16 -16 -40 -68 -30 -53 10 7 19 6 29 -3 21 -8 -7 -39 -4 -68 7 -37 14 -96 13 -196 -4 -185 -31 -213 -21 -138 48 110 102 278 126 423 60z m-142 -606 c37 -15 36 -18 -15 -31 -71 -19 -138 3 -94 31 34 22 55 22 109 0z"/> <path d="M2168 4364 c-43 -30 -97 -64 -120 -75 -42 -19 -42 -19 15 -97 36 -50 57 -66 57 -44 0 48 56 153 116 217 66 71 32 71 -68 -1z"/> <path d="M1875 3906 c-111 -49 -115 -54 -113 -124 1 -39 -4 -137 -13 -216 l-15 -143 188 -7 c223 -7 209 -12 167 52 -20 32 -39 114 -46 207 -13 154 -13 154 -40 90 -16 -36 -36 -65 -45 -65 -10 0 -18 -13 -18 -28 0 -70 -94 -198 -107 -145 -27 104 45 297 136 369 100 78 66 81 -94 10z"/> <path d="M2600 1730 l0 -90 86 0 c127 0 191 108 95 159 -105 57 -181 28 -181 -69z"/> <path d="M3793 1827 c-54 -55 -11 -127 76 -127 93 0 157 41 139 89 -17 43 -181 72 -215 38z"/> <path d="M3795 1609 c-65 -66 -14 -131 98 -125 121 6 181 50 133 98 -28 28 -209 49 -231 27z"/> </g> </svg> 