<?xml version="1.0" standalone="no"?>
<!DOCTYPE svg PUBLIC "-//W3C//DTD SVG 20010904//EN"
 "http://www.w3.org/TR/2001/REC-SVG-20010904/DTD/svg10.dtd">
<svg version="1.0" xmlns="http://www.w3.org/2000/svg"
 width="300.000000pt" height="300.000000pt" viewBox="0 0 300.000000 300.000000"
 preserveAspectRatio="xMidYMid meet">
<metadata>
Created by potrace 1.10, written by Peter Selinger 2001-2011
</metadata>
<g transform="translate(0.000000,300.000000) scale(0.100000,-0.100000)"
fill="#000000" stroke="none">
<path d="M1767 2466 c-19 -56 -21 -93 -7 -130 9 -25 -2 -37 -15 -16 -22 36
-191 61 -323 48 -136 -13 -288 -80 -388 -172 -65 -59 -36 -61 43 -2 94 71 234
129 338 141 100 12 170 9 187 -8 7 -7 33 -19 58 -27 65 -20 67 -26 10 -33 -64
-8 -127 -43 -174 -99 -41 -48 -48 -73 -11 -38 14 13 25 20 25 15 0 -5 12 2 26
16 l26 24 -7 -25 -7 -25 30 28 c20 19 31 24 34 16 3 -10 13 -7 35 9 17 12 34
22 37 22 3 0 -8 -26 -26 -57 -30 -52 -33 -66 -33 -135 1 -92 20 -126 30 -54 4
25 11 43 16 40 5 -3 9 11 9 30 0 21 5 35 11 34 6 -2 16 14 23 35 6 22 14 35
19 31 4 -4 7 1 7 11 0 17 48 70 56 62 9 -9 5 -184 -5 -229 -16 -68 -54 -146
-105 -214 -55 -74 -306 -368 -318 -372 -11 -5 -10 -32 2 -32 5 0 31 20 57 45
25 25 50 45 55 45 4 0 8 -19 8 -42 0 -25 8 -57 20 -76 11 -18 18 -37 15 -43
-4 -5 -57 -9 -120 -9 -122 0 -125 1 -125 59 0 15 -7 36 -15 47 -14 17 -14 16
-9 -23 5 -29 3 -43 -5 -43 -6 0 -11 9 -11 19 0 23 -16 36 -23 19 -2 -7 -2 9 1
36 l5 49 -169 -7 c-93 -4 -177 -10 -186 -12 -23 -7 -24 -50 -2 -58 23 -9 309
-7 300 2 -4 4 -12 8 -17 8 -5 1 -12 3 -16 4 -11 3 -40 6 -88 9 l-40 2 35 13
c19 7 63 15 98 19 l62 5 0 -34 c0 -19 -3 -34 -7 -34 -5 0 -6 -22 -5 -50 l4
-50 -54 0 c-72 0 -98 17 -41 26 24 3 50 12 59 18 12 9 -6 11 -83 8 -106 -5
-136 -14 -131 -40 3 -14 17 -18 71 -20 37 -2 66 -6 63 -10 -2 -4 127 -5 287
-2 278 5 294 6 337 28 25 12 34 20 20 17 -14 -3 -51 -9 -82 -12 l-57 -6 -17
42 c-9 23 -23 41 -31 41 -11 0 -14 7 -10 22 4 12 1 28 -4 35 -8 9 12 43 79
132 182 242 234 356 236 511 1 47 -2 97 -7 112 -6 23 -4 27 13 25 11 -1 20 -7
20 -14 0 -7 7 -13 15 -13 8 0 15 -7 15 -15 0 -8 5 -15 10 -15 6 0 18 -15 27
-34 10 -21 21 -32 29 -29 10 3 14 -3 14 -20 0 -31 17 -45 23 -20 3 10 5 3 6
-14 0 -18 6 -33 11 -33 6 0 15 -10 20 -22 7 -20 9 -17 9 17 1 58 -15 107 -55
166 -38 57 -38 75 1 39 23 -21 25 -22 25 -5 0 17 2 16 25 -5 16 -15 25 -19 25
-10 0 9 9 5 25 -10 16 -15 25 -19 25 -10 0 9 6 8 20 -5 38 -34 20 1 -22 44
-56 56 -106 81 -182 89 l-61 7 48 14 c26 7 47 18 47 22 0 5 11 9 25 9 14 0 25
4 25 9 0 5 16 12 35 15 19 4 35 11 35 16 0 18 -108 11 -160 -10 -27 -11 -50
-18 -50 -16 0 2 28 31 63 65 68 66 61 77 -19 31 -33 -18 -62 -45 -80 -75 l-29
-45 -10 102 -10 103 -18 -49z m99 -171 c-7 -29 22 -65 53 -65 27 0 33 -13 21
-45 l-10 -27 -29 25 c-16 13 -50 29 -76 36 -42 11 -50 10 -81 -10 -34 -21 -36
-21 -49 -3 -19 25 -19 44 -1 44 8 0 22 10 30 22 12 16 25 21 60 21 27 -1 50 4
57 13 18 22 32 16 25 -11z"/>
<path d="M1425 2318 c-44 -5 -93 -13 -110 -20 -75 -28 -145 -62 -145 -70 0 -4
24 4 53 18 74 38 138 55 242 62 50 4 79 10 65 12 -14 3 -61 2 -105 -2z"/>
<path d="M1135 2191 c-36 -30 -57 -59 -69 -96 l-13 -37 -21 35 c-22 37 -64 71
-82 65 -5 -1 13 -31 40 -66 28 -34 48 -62 45 -62 -3 0 -22 7 -42 15 -43 18
-69 19 -114 3 -34 -12 -34 -12 -9 -19 14 -4 45 -8 70 -8 l45 -2 -50 -19 c-58
-23 -58 -23 -50 -10 3 6 4 10 1 10 -11 0 -48 -94 -67 -170 -12 -45 -19 -102
-17 -132 l3 -53 213 -3 c197 -2 242 3 195 23 -10 4 -96 9 -191 11 -96 1 -176
5 -179 8 -9 8 -5 82 7 141 5 28 11 61 12 74 3 21 16 30 76 54 39 16 72 34 72
41 0 14 68 61 89 62 9 1 22 -5 29 -12 10 -11 6 -16 -23 -28 -20 -9 -43 -29
-53 -46 -17 -31 -36 -42 -26 -15 9 21 -9 19 -40 -6 -43 -33 -66 -90 -65 -156
l1 -58 15 38 c9 20 20 37 24 37 5 0 9 9 9 20 0 11 4 20 9 20 4 0 15 17 24 38
l15 37 1 -65 c2 -69 24 -134 56 -160 16 -14 17 -13 12 5 -3 11 -9 61 -12 110
-3 50 -8 98 -11 108 -3 9 -1 17 5 17 5 0 11 8 13 17 2 12 14 3 41 -34 89 -121
154 -322 164 -505 5 -92 8 -106 20 -96 8 6 12 20 10 30 -3 10 -1 16 4 12 5 -3
9 1 9 8 0 9 3 9 10 -2 19 -29 11 65 -14 161 -47 184 -132 357 -209 428 -40 36
-23 42 44 15 34 -13 66 -21 71 -18 5 3 17 -5 28 -18 11 -13 19 -19 20 -14 0 4
12 1 26 -9 33 -21 40 -14 19 19 -29 44 -101 89 -160 98 -14 2 -4 9 30 22 28
10 57 25 66 32 8 8 25 14 37 14 11 0 24 5 27 10 4 6 -18 10 -58 10 -48 0 -76
-6 -112 -25 -27 -13 -50 -23 -52 -22 -1 2 11 31 28 66 17 35 29 65 27 66 -2 2
-12 -4 -23 -14z"/>
<path d="M2040 2091 c60 -97 116 -260 122 -356 l3 -50 -210 -5 c-162 -4 -216
-8 -235 -20 -23 -14 -3 -15 215 -18 132 -1 246 0 254 3 11 4 13 22 8 88 -9
126 -59 259 -135 360 -47 61 -60 61 -22 -2z"/>
<path d="M2074 1952 c21 -41 56 -161 56 -192 0 -16 5 -32 11 -35 16 -11 4 65
-26 159 -15 47 -33 87 -41 90 -12 5 -12 2 0 -22z"/>
<path d="M1330 1857 c-24 -12 -50 -34 -58 -47 l-16 -25 30 26 c46 42 75 52
141 53 54 1 66 -3 100 -30 21 -17 46 -48 56 -68 22 -47 33 -42 13 5 -41 97
-168 138 -266 86z"/>
<path d="M890 1700 c0 -13 110 -13 130 0 10 7 -7 10 -57 10 -42 0 -73 -4 -73
-10z"/>
<path d="M1120 1700 c8 -5 24 -10 35 -10 11 0 27 5 35 10 11 7 1 10 -35 10
-36 0 -46 -3 -35 -10z"/>
<path d="M1765 1700 c4 -6 75 -10 180 -10 105 0 176 4 180 10 4 7 -58 10 -180
10 -122 0 -184 -3 -180 -10z"/>
<path d="M1678 1584 c-4 -3 -4 -12 -2 -19 3 -7 -5 -15 -17 -18 -13 -4 -21 -9
-18 -12 5 -5 93 0 437 23 57 4 102 11 102 17 0 11 -492 20 -502 9z"/>
<path d="M1088 1573 c28 -2 76 -2 105 0 28 2 5 3 -53 3 -58 0 -81 -1 -52 -3z"/>
<path d="M1365 1550 c7 -12 85 -14 85 -2 0 5 -21 10 -46 10 -28 2 -43 -2 -39
-8z"/>
<path d="M1010 1536 c-178 -11 -185 -12 -188 -32 -3 -21 1 -22 140 -29 79 -3
177 -5 218 -3 l75 3 -70 8 c-82 10 -110 18 -80 24 101 18 134 27 129 34 -3 5
-13 8 -22 7 -9 -1 -100 -6 -202 -12z"/>
<path d="M1627 1500 c4 -4 75 -11 158 -15 82 -4 157 -10 165 -15 8 -4 27 -7
42 -5 16 2 30 -1 34 -6 3 -5 -27 -10 -68 -11 -40 -1 -82 -2 -93 -3 -185 -15
-250 -24 -242 -31 10 -10 530 20 548 32 13 8 11 44 -3 49 -24 7 -549 12 -541
5z"/>
<path d="M1675 1379 c22 -4 86 -8 143 -8 84 -1 102 -4 102 -16 0 -14 -26 -20
-77 -18 -7 1 -13 -2 -13 -6 0 -3 -10 -7 -22 -7 -56 -4 -144 -17 -156 -24 -8
-4 10 -5 40 -3 29 2 134 8 233 13 183 10 213 18 200 52 -5 12 -32 16 -127 21
-172 10 -375 7 -323 -4z"/>
<path d="M1730 1266 c0 -4 12 -12 28 -18 26 -11 24 -12 -38 -24 -36 -7 -135
-14 -220 -14 -194 -2 -392 -20 -398 -37 -2 -8 7 -13 25 -14 27 -1 384 -16 596
-25 64 -3 107 -1 107 4 0 12 -94 20 -350 29 -231 7 -225 21 10 22 80 1 190 5
245 11 55 5 139 12 188 16 77 5 87 8 87 25 0 10 -1 19 -2 20 -26 5 -278 10
-278 5z"/>
<path d="M1015 959 c-108 -31 -128 -191 -32 -249 39 -24 125 -27 167 -5 28 14
30 20 30 70 0 54 0 55 -29 55 -28 0 -30 -3 -33 -42 -3 -42 -4 -43 -41 -46 -31
-3 -43 2 -68 28 -27 27 -31 36 -26 68 4 20 16 45 28 55 26 21 87 22 116 2 18
-13 22 -12 38 5 23 25 8 45 -44 60 -42 12 -65 11 -106 -1z"/>
<path d="M1547 962 l-29 -3 4 -106 c3 -104 3 -105 36 -134 27 -25 41 -29 87
-29 46 0 60 4 87 29 33 29 33 30 36 138 l4 108 -33 -1 -32 -1 2 -84 c2 -109
-10 -134 -64 -134 -54 0 -66 25 -63 132 1 45 0 84 -2 85 -3 2 -18 2 -33 0z"/>
<path d="M1830 827 l0 -139 104 4 c85 2 108 6 125 22 30 27 28 81 -3 101 -24
16 -24 17 -5 36 24 24 24 50 0 80 -17 22 -29 24 -120 29 l-101 5 0 -138z m164
77 c32 -32 9 -54 -56 -54 l-48 0 0 35 c0 35 0 35 44 35 27 0 51 -6 60 -16z m1
-104 c20 -7 26 -16 23 -33 -3 -20 -9 -22 -65 -25 l-63 -3 0 36 c0 34 1 35 39
35 22 0 52 -5 66 -10z"/>
<path d="M1235 825 l0 -135 33 0 c31 0 32 2 32 40 0 37 2 40 29 40 22 0 34 -9
55 -40 22 -34 31 -40 62 -40 l36 0 -32 40 -32 40 26 31 c36 43 35 91 -3 130
-28 28 -34 29 -118 29 l-88 0 0 -135z m163 73 c16 -16 15 -53 0 -65 -7 -6 -32
-13 -55 -16 l-43 -5 0 49 0 49 43 0 c24 0 48 -5 55 -12z"/>
<path d="M1025 600 c4 -6 11 -8 16 -5 5 4 10 -13 11 -37 1 -40 1 -41 5 -8 2
19 11 41 20 48 14 10 11 12 -21 12 -23 0 -35 -4 -31 -10z"/>
<path d="M1569 565 c-9 -25 -13 -45 -8 -45 5 0 9 5 9 10 0 14 38 12 43 -2 2
-7 7 -10 11 -7 8 7 -22 89 -33 89 -3 0 -13 -20 -22 -45z"/>
<path d="M1154 582 c-6 -4 -11 -19 -12 -34 -1 -24 2 -28 23 -28 21 0 25 5 25
29 0 29 -18 45 -36 33z"/>
<path d="M1281 580 c-21 -12 -9 -55 17 -58 12 -2 22 1 22 7 0 6 -6 8 -14 5 -8
-3 -17 -1 -21 5 -4 7 4 11 19 11 18 0 24 4 20 14 -7 19 -27 26 -43 16z"/>
<path d="M1408 582 c-19 -4 -26 -62 -8 -62 6 0 10 12 10 26 0 32 22 27 31 -7
l7 -24 1 26 c1 30 -16 47 -41 41z"/>
<path d="M1472 576 c-5 -6 -9 -26 -10 -44 -3 -38 21 -53 46 -29 14 15 14 17
-9 26 -13 5 -19 10 -12 10 7 1 17 10 22 20 9 15 7 20 -9 24 -11 3 -23 0 -28
-7z"/>
<path d="M1652 581 c-5 -3 -11 -21 -14 -39 -5 -36 12 -58 37 -48 21 8 19 36
-2 37 -11 0 -13 3 -5 6 7 2 17 13 22 23 7 14 5 19 -9 23 -10 2 -23 2 -29 -2z"/>
<path d="M1715 573 c-9 -8 -14 -22 -11 -30 3 -8 6 -17 6 -19 0 -9 39 -3 46 7
4 8 0 9 -15 4 -12 -4 -21 -2 -21 4 0 6 9 11 20 11 11 0 20 6 20 14 0 21 -28
27 -45 9z"/>
<path d="M1788 582 c-19 -4 -26 -62 -8 -62 6 0 10 11 10 25 0 34 28 32 33 -2
4 -27 4 -27 6 3 1 33 -11 43 -41 36z"/>
<path d="M1850 575 c-26 -32 15 -75 44 -45 8 9 6 11 -10 6 -15 -5 -24 -2 -28
9 -7 18 17 31 36 19 10 -6 10 -4 -1 9 -17 21 -25 21 -41 2z"/>
<path d="M1916 570 c4 -14 7 -37 7 -52 0 -16 1 -28 3 -28 9 0 45 83 40 93 -2
7 -8 2 -11 -10 -4 -13 -11 -23 -15 -23 -4 0 -12 10 -19 23 -11 22 -11 22 -5
-3z"/>
<path d="M1211 550 c6 -16 15 -30 19 -30 4 0 13 14 19 30 6 18 6 30 0 30 -5 0
-9 -7 -9 -15 0 -8 -4 -15 -10 -15 -5 0 -10 7 -10 15 0 8 -4 15 -9 15 -6 0 -6
-12 0 -30z"/>
</g>
</svg>
